<?xml version="1.0" standalone="no"?>
<svg viewBox="0 0 200 200" xmlns="http://www.w3.org/2000/svg">
  <path fill="#FF0066" d="M35.9,-60.8C42.6,-58.4,41.3,-40.7,42.3,-28.1C43.4,-15.4,46.8,-7.7,54,4.2C61.2,16,72.2,32,69.3,41.6C66.5,51.1,49.8,54.2,35.9,56.9C22.1,59.5,11,61.8,2.3,57.8C-6.4,53.8,-12.9,43.7,-20.5,37.4C-28.2,31.1,-37,28.8,-46,23.2C-55,17.6,-64.3,8.8,-64.1,0.1C-63.9,-8.6,-54.3,-17.2,-47.4,-26.5C-40.5,-35.7,-36.3,-45.7,-28.8,-47.7C-21.4,-49.6,-10.7,-43.7,2,-47.1C14.6,-50.5,29.3,-63.3,35.9,-60.8Z" transform="translate(100 100)" />
</svg>
